<?xml version="1.0" encoding="UTF-8"?>
<svg xmlns="http://www.w3.org/2000/svg" xmlns:xlink="http://www.w3.org/1999/xlink" width="20pt" height="20pt" viewBox="0 0 20 20" version="1.1">
<g id="surface1">
<path style=" stroke:none;fill-rule:nonzero;fill:rgb(71.372549%,71.372549%,71.372549%);fill-opacity:1;" d="M 8.082031 11.085938 L 15.214844 11.085938 C 15.316406 11.085938 15.402344 11.054688 15.46875 10.988281 C 15.535156 10.921875 15.566406 10.835938 15.566406 10.734375 L 15.566406 9.96875 C 15.566406 9.867188 15.535156 9.78125 15.46875 9.714844 C 15.402344 9.648438 15.316406 9.617188 15.214844 9.617188 L 9.199219 9.617188 L 9.199219 3.597656 C 9.199219 3.496094 9.164062 3.414062 9.097656 3.347656 C 9.03125 3.28125 8.949219 3.246094 8.847656 3.246094 L 8.082031 3.246094 C 7.980469 3.246094 7.894531 3.28125 7.828125 3.347656 C 7.761719 3.414062 7.730469 3.496094 7.730469 3.597656 L 7.730469 10.734375 C 7.730469 10.835938 7.761719 10.921875 7.828125 10.988281 C 7.894531 11.054688 7.980469 11.085938 8.082031 11.085938 Z M 8.082031 11.085938 "/>
</g>
</svg>
