<?xml version="1.0" encoding="UTF-8"?>
<!DOCTYPE svg PUBLIC "-//W3C//DTD SVG 1.1//EN" "http://www.w3.org/Graphics/SVG/1.1/DTD/svg11.dtd">
<!-- Creator: CorelDRAW 2021 (64-Bit) -->
<svg xmlns="http://www.w3.org/2000/svg" xml:space="preserve" width="3343px" height="385px" version="1.1" style="shape-rendering:geometricPrecision; text-rendering:geometricPrecision; image-rendering:optimizeQuality; fill-rule:evenodd; clip-rule:evenodd"
viewBox="0 0 3464.39 399.2"
 xmlns:xlink="http://www.w3.org/1999/xlink"
 xmlns:xodm="http://www.corel.com/coreldraw/odm/2003">
 <defs>
  <style type="text/css">
   <![CDATA[
    .str0 {stroke:white;stroke-width:0.93;stroke-linecap:round;stroke-linejoin:round;stroke-miterlimit:2.61313}
    .fil2 {fill:none;fill-rule:nonzero}
    .fil1 {fill:lime}
    .fil3 {fill:lime;fill-rule:nonzero}
    .fil0 {fill:red;fill-rule:nonzero}
   ]]>
  </style>
   <clipPath id="id0" style="clip-rule:nonzero">
    <path d="M463.72 85.9l-115.16 88.73c-7.58,5.85 -17.99,5.52 -25.15,-0.22l-146.03 -112.59 0 296.49 23.25 0 0 -207.72c0,-11.27 9.14,-20.4 20.41,-20.4 5.26,0 10.06,1.99 13.68,5.26l61.54 47.41 39.87 30.77 102.73 -79.14c8.89,-6.86 21.67,-5.22 28.53,3.67 2.86,3.7 4.24,8.09 4.24,12.43l0.07 0 0 207.72 23.17 0 0 -296.45 -31.15 24.04zm-127.59 46.94l102.73 -79.14 62.72 -48.42c3.62,-3.28 8.42,-5.28 13.69,-5.28 11.27,0 20.41,9.14 20.41,20.41l0 148.01c6.69,-42.6 26.86,-80.74 56.01,-109.9 36.1,-36.1 85.97,-58.43 141.04,-58.43 55.07,0 104.94,22.33 141.04,58.43 29.41,29.41 49.68,67.95 56.18,111l0 -149.11c0,-11.27 9.14,-20.41 20.41,-20.41l226.07 0c15.82,0 30.93,3.17 44.77,8.9 14.37,5.96 27.25,14.65 37.99,25.4l-0.04 0.04 0.12 0.12c10.69,10.84 19.33,23.78 25.25,38.13 5.72,13.89 8.89,28.98 8.89,44.64 0,23.28 -6.83,45.04 -18.58,63.34 -12.11,18.85 -29.47,33.98 -50.02,43.28 -2.18,1.01 -4.38,1.95 -6.6,2.82l40.12 78.73 32.21 63.32c1.66,2.95 2.61,6.36 2.61,9.99 0,11.27 -9.13,20.41 -20.4,20.41l-71.75 0 0 -0.09c-7.38,0 -14.5,-4.04 -18.09,-11.07l-31.99 -62.56c-0.3,-0.49 -0.59,-0.99 -0.85,-1.51l-34.21 -67.14 0.05 -0.02 -0.58 -1.06 -0.29 -0.46c-3.82,-6.32 -9.25,-11.59 -15.72,-15.23 -6.23,-3.51 -13.49,-5.51 -21.25,-5.51l-43.49 0 0 144.24c0,11.27 -9.14,20.41 -20.41,20.41l-63.81 0c-11.27,0 -20.41,-9.14 -20.41,-20.41l0 -149.11c-6.5,43.05 -26.77,81.59 -56.18,111 -36.1,36.1 -85.97,58.43 -141.04,58.43 -55.07,0 -104.94,-22.33 -141.04,-58.43 -29.15,-29.16 -49.32,-67.3 -56.01,-109.9l0 148.01c0,11.27 -9.14,20.41 -20.41,20.41l-63.98 0c-11.27,0 -20.4,-9.14 -20.4,-20.41l0 -186.72 -82.06 63.22c-7.16,5.73 -17.56,6.06 -25.14,0.2l-82.25 -63.42 0 186.72c0,11.27 -9.13,20.41 -20.4,20.41l-64.07 0c-11.27,0 -20.41,-9.14 -20.41,-20.41l0 -358.3 0.07 0c0,-4.35 1.38,-8.73 4.24,-12.44 6.87,-8.89 19.64,-10.53 28.53,-3.66l166.73 128.53zm396.6 -91.94c-43.8,0 -83.47,17.76 -112.18,46.48 -28.72,28.71 -46.48,68.38 -46.48,112.18 0,43.8 17.76,83.47 46.48,112.18 28.71,28.72 68.38,46.48 112.18,46.48 43.81,0 83.47,-17.76 112.19,-46.48 28.71,-28.71 46.47,-68.38 46.47,-112.18 0,-43.8 -17.76,-83.47 -46.47,-112.18 -28.72,-28.72 -68.38,-46.48 -112.19,-46.48zm0 294.32c-37.41,0 -71.33,-15.21 -95.89,-39.77 -24.55,-24.56 -39.77,-58.48 -39.77,-95.89 0,-37.41 15.22,-71.33 39.77,-95.89 24.56,-24.56 58.48,-39.77 95.89,-39.77 37.41,0 71.33,15.21 95.89,39.77 24.56,24.56 39.77,58.48 39.77,95.89 0,37.41 -15.21,71.33 -39.77,95.89 -24.56,24.56 -58.48,39.77 -95.89,39.77zm-67.03 -68.63c17.17,17.18 40.89,27.82 67.03,27.82 26.15,0 49.86,-10.64 67.04,-27.82 17.17,-17.17 27.81,-40.89 27.81,-67.03 0,-26.14 -10.64,-49.86 -27.81,-67.04 -17.18,-17.17 -40.89,-27.81 -67.04,-27.81 -26.14,0 -49.86,10.64 -67.03,27.81 -17.18,17.18 -27.82,40.9 -27.82,67.04 0,26.14 10.64,49.86 27.82,67.03zm521.54 -73.74c3.37,-0.43 6.71,-1.11 9.97,-2.04l-0.01 -0.02c3.74,-1.06 7.27,-2.38 10.56,-3.93l0.32 -0.15c13.32,-6.04 24.6,-15.88 32.47,-28.14 7.63,-11.86 12.05,-26.06 12.05,-41.34 0,-10.41 -2.03,-20.27 -5.71,-29.18 -3.84,-9.33 -9.5,-17.79 -16.51,-24.93l-0.04 0.04c-7.09,-7.09 -15.48,-12.79 -24.76,-16.63 -8.89,-3.68 -18.72,-5.72 -29.15,-5.72l-205.66 0 0 317.5 23 0 0 -144.25c0,-11.27 9.13,-20.4 20.4,-20.4l63.9 0c14.93,0 28.99,3.92 41.18,10.78 12.64,7.11 23.24,17.38 30.71,29.73 0.4,0.67 0.75,1.35 1.07,2.04l1.12 2.08 0.06 -0.03 34.21 67.14c0.25,0.49 0.48,1 0.69,1.5l26.28 51.41 26.1 0 -17.5 -34.42 -51.7 -101.43c-5.11,-10.04 -1.11,-22.32 8.92,-27.42 2.58,-1.31 5.31,-2.02 8.03,-2.19zm-193.39 -42.69l0 -65.94c0,-11.27 9.14,-20.41 20.41,-20.41l162.17 0c9.02,0 16.66,2.2 22.95,5.23 6.1,2.95 10.75,6.67 14.11,9.9l0.64 0.64c2.78,2.91 6.54,7.51 9.71,13.81 3.25,6.47 5.76,14.49 5.76,23.84 0,10.43 -3.07,20.45 -8.59,29 -5.47,8.44 -13.32,15.33 -22.97,19.6l-0.93 0.38c-3.22,1.46 -6.41,2.5 -9.59,3.19 -3.78,0.81 -7.46,1.17 -11.09,1.17l-162.17 0c-11.27,0 -20.41,-9.14 -20.41,-20.41zm40.81 -45.54l0 25.14 141.77 0c1.06,0 1.96,-0.07 2.64,-0.21 0.39,-0.09 0.74,-0.18 1.05,-0.29 0.49,-0.26 0.98,-0.51 1.5,-0.73 2.24,-0.99 4.05,-2.56 5.27,-4.46 1.22,-1.89 1.9,-4.24 1.9,-6.84 0,-2.33 -0.57,-4.21 -1.3,-5.67 -0.73,-1.44 -1.72,-2.69 -2.55,-3.6 -0.86,-0.78 -1.95,-1.62 -3.26,-2.25 -1.3,-0.63 -3.01,-1.09 -5.25,-1.09l-141.77 0zm385.93 -40.81l241.16 0 0 -23 -241.16 0c-21.09,0 -40.12,8.53 -53.85,22.3 -13.79,13.83 -22.31,32.97 -22.31,54.12l0 164.65c0,21.16 8.52,40.3 22.31,54.13 13.73,13.77 32.76,22.3 53.85,22.3l241.16 0 0 -23 -241.16 0c-14.64,0 -27.92,-6.05 -37.55,-15.75 -9.64,-9.72 -15.61,-23.08 -15.61,-37.68l0 -67.65c0,-11.27 9.13,-20.4 20.4,-20.4l210.11 0 0 -23 -210.11 0c-11.27,0 -20.4,-9.14 -20.4,-20.41l0 -33.19c0,-14.6 5.97,-27.95 15.61,-37.67 9.63,-9.7 22.91,-15.75 37.55,-15.75zm261.57 40.81l-261.57 0c-3.4,0 -6.48,1.4 -8.7,3.64 -2.25,2.27 -3.65,5.45 -3.65,8.97l0 12.78 210.1 0c11.27,0 20.41,9.14 20.41,20.41l0 63.81c0,11.27 -9.14,20.41 -20.41,20.41l-210.1 0 0 47.24c0,3.53 1.4,6.71 3.65,8.98 2.22,2.24 5.3,3.63 8.7,3.63l261.57 0c11.26,0 20.4,9.14 20.4,20.41l0 63.81c0,11.27 -9.14,20.41 -20.4,20.41l-261.57 0c-32.28,0 -61.51,-13.16 -82.7,-34.41 -21.18,-21.24 -34.27,-50.54 -34.27,-82.83l0 -164.65c0,-32.28 13.09,-61.58 34.27,-82.82 21.19,-21.25 50.42,-34.41 82.7,-34.41l261.57 0c11.26,0 20.4,9.14 20.4,20.41l0 63.81c0,11.27 -9.14,20.4 -20.4,20.4zm71.76 -63.55l0 23.09 126.75 0c11.27,0 20.41,9.13 20.41,20.4l0 273.83 23.09 0 0 -273.83c0,-11.27 9.13,-20.4 20.4,-20.4l126.67 0 0 -23.09 -317.32 0zm-40.81 43.49l0 -63.9c0,-11.27 9.13,-20.4 20.4,-20.4l358.14 0c11.27,0 20.4,9.13 20.4,20.4l0 63.9c0,11.27 -9.13,20.41 -20.4,20.41l-126.67 0 0 273.83c0,11.27 -9.14,20.4 -20.41,20.4l-63.9 0c-11.26,0 -20.4,-9.13 -20.4,-20.4l0 -273.83 -126.76 0c-11.27,0 -20.4,-9.14 -20.4,-20.41zm526.47 -20.75l241.15 0 0 -23 -241.15 0c-21.09,0 -40.12,8.53 -53.85,22.3 -13.8,13.83 -22.32,32.97 -22.32,54.12l0 164.65c0,21.16 8.52,40.3 22.32,54.13 13.73,13.77 32.76,22.3 53.85,22.3l241.15 0 0 -23 -241.15 0c-14.65,0 -27.93,-6.05 -37.56,-15.75 -9.64,-9.72 -15.61,-23.08 -15.61,-37.68l0 -67.65c0,-11.27 9.14,-20.4 20.41,-20.4l210.1 0 0 -23 -210.1 0c-11.27,0 -20.41,-9.14 -20.41,-20.41l0 -33.19c0,-14.6 5.97,-27.95 15.61,-37.67 9.63,-9.7 22.91,-15.75 37.56,-15.75zm261.56 40.81l-261.56 0c-3.41,0 -6.49,1.4 -8.7,3.64 -2.26,2.27 -3.66,5.45 -3.66,8.97l0 12.78 210.11 0c11.27,0 20.4,9.14 20.4,20.41l0 63.81c0,11.27 -9.13,20.41 -20.4,20.41l-210.11 0 0 47.24c0,3.53 1.4,6.71 3.66,8.98 2.21,2.24 5.29,3.63 8.7,3.63l261.56 0c11.27,0 20.4,9.14 20.4,20.41l0 63.81c0,11.27 -9.13,20.41 -20.4,20.41l-261.56 0c-32.28,0 -61.51,-13.16 -82.71,-34.41 -21.18,-21.24 -34.27,-50.54 -34.27,-82.83l0 -164.65c0,-32.28 13.09,-61.58 34.27,-82.82 21.2,-21.25 50.43,-34.41 82.71,-34.41l261.56 0c11.27,0 20.4,9.14 20.4,20.41l0 63.81c0,11.27 -9.13,20.4 -20.4,20.4zm197.24 -40.81l158.74 0 0 -23 -158.74 0c-43.85,0 -83.54,17.77 -112.26,46.49 -28.72,28.72 -46.49,68.41 -46.49,112.26 0,43.85 17.77,83.54 46.49,112.26 28.72,28.72 68.41,46.49 112.26,46.49l158.74 0 0 -23 -158.74 0c-37.45,0 -71.39,-15.22 -95.96,-39.79 -24.57,-24.57 -39.79,-58.51 -39.79,-95.96 0,-37.45 15.22,-71.39 39.79,-95.96 24.57,-24.57 58.51,-39.79 95.96,-39.79zm179.15 40.81l-179.15 0c-26.19,0 -49.93,10.65 -67.11,27.83 -17.19,17.19 -27.83,40.92 -27.83,67.11 0,26.19 10.64,49.92 27.83,67.11 17.18,17.18 40.92,27.82 67.11,27.82l179.15 0c11.27,0 20.41,9.14 20.41,20.41l0 63.81c0,11.27 -9.14,20.41 -20.41,20.41l-179.15 0c-55.11,0 -105,-22.34 -141.12,-58.45 -36.1,-36.11 -58.44,-86 -58.44,-141.11 0,-55.11 22.34,-105 58.44,-141.12 36.12,-36.1 86.01,-58.44 141.12,-58.44l179.15 0c11.27,0 20.41,9.14 20.41,20.41l0 63.81c0,11.27 -9.14,20.4 -20.41,20.4zm365.83 -63.72l0 109.52c0,11.27 -9.14,20.41 -20.41,20.41l-230.34 0c-11.27,0 -20.4,-9.14 -20.4,-20.41l0 -109.61 -23.09 0 0 317.33 23.09 0 0 -143.91c0,-11.27 9.13,-20.4 20.4,-20.4l230.34 0c11.27,0 20.41,9.13 20.41,20.4l0 143.99 23.09 0 0 -317.32 -23.09 0zm-40.81 89.11l0 -109.52c0,-11.27 9.13,-20.4 20.4,-20.4l63.9 0c11.27,0 20.41,9.13 20.41,20.4l0 358.14c0,11.27 -9.14,20.4 -20.41,20.4l-63.9 0c-11.27,0 -20.4,-9.13 -20.4,-20.4l0 -143.99 -189.53 0 0 143.9c0,11.27 -9.14,20.41 -20.41,20.41l-63.89 0c-11.27,0 -20.41,-9.14 -20.41,-20.41l0 -358.13c0,-11.27 9.14,-20.41 20.41,-20.41l63.89 0c11.27,0 20.41,9.14 20.41,20.41l0 109.6 189.53 0z"/>
   </clipPath>
   <clipPath id="id1" style="clip-rule:nonzero">
    <path d="M451.29 69.8l-115.17 88.72 -115.08 -88.72 -64.07 -49.39 0 358.3 64.07 0 0 -228.12 62.79 48.37 52.29 40.35 52.38 -40.35 62.79 -48.37 0 228.12 63.98 0 0 -358.3 -63.98 49.39z"/>
   </clipPath>
   <clipPath id="id2" style="clip-rule:nonzero">
    <path d="M732.73 20.49c-98.87,0 -179.07,80.19 -179.07,179.07 0,98.87 80.2,179.07 179.07,179.07 98.88,0 179.07,-80.2 179.07,-179.07 0,-98.88 -80.19,-179.07 -179.07,-179.07l0 0zm0 294.32c-63.55,0 -115.25,-51.69 -115.25,-115.25 0,-63.56 51.7,-115.25 115.25,-115.25 63.56,0 115.26,51.69 115.26,115.25 0,63.56 -51.7,115.25 -115.26,115.25z"/>
   </clipPath>
   <clipPath id="id3" style="clip-rule:nonzero">
    <path d="M1188.46 213.21c0,0 0.09,0 0.09,0 9.81,-1.11 19.19,-3.84 27.89,-7.93 33.36,-15.11 56.56,-48.89 56.56,-88.05 0,-26.61 -10.83,-50.84 -28.23,-68.5 -17.49,-17.49 -41.55,-28.32 -68.34,-28.32l-226.07 0 0 358.3 63.81 0 0 -164.65 63.9 0c23.12,0 43.34,12.29 54.43,30.63l1.53 2.81 34.21 67.14 32.76 64.07 71.75 0 -32.59 -64.07 -51.7 -101.43zm-174.2 -63.05l0 -65.94 162.17 0c11.26,0 18.69,5.29 22.95,9.38 3.67,3.84 9.81,11.95 9.81,23.63 0,12.97 -7.42,24.66 -19.36,29.95 -4.27,2.13 -8.7,2.98 -13.4,2.98l-162.17 0z"/>
   </clipPath>
   <clipPath id="id4" style="clip-rule:nonzero">
    <path d="M1420.59 84.22l261.56 0 0 -63.81 -261.56 0c-53.4,0 -96.57,43.42 -96.57,96.82l0 164.65c0,53.41 43.17,96.83 96.57,96.83l261.56 0 0 -63.81 -261.56 0c-18.08,0 -32.76,-14.93 -32.76,-33.02l0 -67.65 230.51 0 0 -63.81 -230.51 0 0 -33.19c0,-18.08 14.68,-33.01 32.76,-33.01l0 0z"/>
   </clipPath>
   <clipPath id="id5" style="clip-rule:nonzero">
    <path d="M1733.51 20.66l0 63.9 147.16 0 0 294.24 63.9 0 0 -294.24 147.08 0 0 -63.9 -358.14 0z"/>
   </clipPath>
   <clipPath id="id6" style="clip-rule:nonzero">
    <path d="M2239.58 84.22l261.56 0 0 -63.81 -261.56 0c-53.41,0 -96.58,43.42 -96.58,96.82l0 164.65c0,53.41 43.17,96.83 96.58,96.83l261.56 0 0 -63.81 -261.56 0c-18.09,0 -32.76,-14.93 -32.76,-33.02l0 -67.65 230.51 0 0 -63.81 -230.51 0 0 -33.19c0,-18.08 14.67,-33.01 32.76,-33.01l0 0z"/>
   </clipPath>
   <clipPath id="id7" style="clip-rule:nonzero">
    <path d="M2698.38 84.22l179.15 0 0 -63.81 -179.15 0c-98.96,0 -179.16,80.19 -179.16,179.15 0,98.96 80.2,179.15 179.16,179.15l179.15 0 0 -63.81 -179.15 0c-63.65,0 -115.34,-51.7 -115.34,-115.34 0,-63.64 51.69,-115.34 115.34,-115.34l0 0z"/>
   </clipPath>
   <clipPath id="id8" style="clip-rule:nonzero">
    <path d="M3222.95 20.49l0 129.93 -230.34 0 0 -130.01 -63.9 0 0 358.13 63.9 0 0 -164.31 230.34 0 0 164.4 63.9 0 0 -358.14 -63.9 0z"/>
   </clipPath>
 </defs>
 <g id="Layer_x0020_1">
  <metadata id="CorelCorpID_0Corel-Layer"/>
  <path class="fil0" d="M463.72 85.9l-115.16 88.73c-7.58,5.85 -17.99,5.52 -25.15,-0.22l-146.03 -112.59 0 296.49 23.25 0 0 -207.72c0,-11.27 9.14,-20.4 20.41,-20.4 5.26,0 10.06,1.99 13.68,5.26l61.54 47.41 39.87 30.77 102.73 -79.14c8.89,-6.86 21.67,-5.22 28.53,3.67 2.86,3.7 4.24,8.09 4.24,12.43l0.07 0 0 207.72 23.17 0 0 -296.45 -31.15 24.04zm-127.59 46.94l102.73 -79.14 62.72 -48.42c3.62,-3.28 8.42,-5.28 13.69,-5.28 11.27,0 20.41,9.14 20.41,20.41l0 148.01c6.69,-42.6 26.86,-80.74 56.01,-109.9 36.1,-36.1 85.97,-58.43 141.04,-58.43 55.07,0 104.94,22.33 141.04,58.43 29.41,29.41 49.68,67.95 56.18,111l0 -149.11c0,-11.27 9.14,-20.41 20.41,-20.41l226.07 0c15.82,0 30.93,3.17 44.77,8.9 14.37,5.96 27.25,14.65 37.99,25.4l-0.04 0.04 0.12 0.12c10.69,10.84 19.33,23.78 25.25,38.13 5.72,13.89 8.89,28.98 8.89,44.64 0,23.28 -6.83,45.04 -18.58,63.34 -12.11,18.85 -29.47,33.98 -50.02,43.28 -2.18,1.01 -4.38,1.95 -6.6,2.82l40.12 78.73 32.21 63.32c1.66,2.95 2.61,6.36 2.61,9.99 0,11.27 -9.13,20.41 -20.4,20.41l-71.75 0 0 -0.09c-7.38,0 -14.5,-4.04 -18.09,-11.07l-31.99 -62.56c-0.3,-0.49 -0.59,-0.99 -0.85,-1.51l-34.21 -67.14 0.05 -0.02 -0.58 -1.06 -0.29 -0.46c-3.82,-6.32 -9.25,-11.59 -15.72,-15.23 -6.23,-3.51 -13.49,-5.51 -21.25,-5.51l-43.49 0 0 144.24c0,11.27 -9.14,20.41 -20.41,20.41l-63.81 0c-11.27,0 -20.41,-9.14 -20.41,-20.41l0 -149.11c-6.5,43.05 -26.77,81.59 -56.18,111 -36.1,36.1 -85.97,58.43 -141.04,58.43 -55.07,0 -104.94,-22.33 -141.04,-58.43 -29.15,-29.16 -49.32,-67.3 -56.01,-109.9l0 148.01c0,11.27 -9.14,20.41 -20.41,20.41l-63.98 0c-11.27,0 -20.4,-9.14 -20.4,-20.41l0 -186.72 -82.06 63.22c-7.16,5.73 -17.56,6.06 -25.14,0.2l-82.25 -63.42 0 186.72c0,11.27 -9.13,20.41 -20.4,20.41l-64.07 0c-11.27,0 -20.41,-9.14 -20.41,-20.41l0 -358.3 0.07 0c0,-4.35 1.38,-8.73 4.24,-12.44 6.87,-8.89 19.64,-10.53 28.53,-3.66l166.73 128.53zm396.6 -91.94c-43.8,0 -83.47,17.76 -112.18,46.48 -28.72,28.71 -46.48,68.38 -46.48,112.18 0,43.8 17.76,83.47 46.48,112.18 28.71,28.72 68.38,46.48 112.18,46.48 43.81,0 83.47,-17.76 112.19,-46.48 28.71,-28.71 46.47,-68.38 46.47,-112.18 0,-43.8 -17.76,-83.47 -46.47,-112.18 -28.72,-28.72 -68.38,-46.48 -112.19,-46.48zm0 294.32c-37.41,0 -71.33,-15.21 -95.89,-39.77 -24.55,-24.56 -39.77,-58.48 -39.77,-95.89 0,-37.41 15.22,-71.33 39.77,-95.89 24.56,-24.56 58.48,-39.77 95.89,-39.77 37.41,0 71.33,15.21 95.89,39.77 24.56,24.56 39.77,58.48 39.77,95.89 0,37.41 -15.21,71.33 -39.77,95.89 -24.56,24.56 -58.48,39.77 -95.89,39.77zm-67.03 -68.63c17.17,17.18 40.89,27.82 67.03,27.82 26.15,0 49.86,-10.64 67.04,-27.82 17.17,-17.17 27.81,-40.89 27.81,-67.03 0,-26.14 -10.64,-49.86 -27.81,-67.04 -17.18,-17.17 -40.89,-27.81 -67.04,-27.81 -26.14,0 -49.86,10.64 -67.03,27.81 -17.18,17.18 -27.82,40.9 -27.82,67.04 0,26.14 10.64,49.86 27.82,67.03zm521.54 -73.74c3.37,-0.43 6.71,-1.11 9.97,-2.04l-0.01 -0.02c3.74,-1.06 7.27,-2.38 10.56,-3.93l0.32 -0.15c13.32,-6.04 24.6,-15.88 32.47,-28.14 7.63,-11.86 12.05,-26.06 12.05,-41.34 0,-10.41 -2.03,-20.27 -5.71,-29.18 -3.84,-9.33 -9.5,-17.79 -16.51,-24.93l-0.04 0.04c-7.09,-7.09 -15.48,-12.79 -24.76,-16.63 -8.89,-3.68 -18.72,-5.72 -29.15,-5.72l-205.66 0 0 317.5 23 0 0 -144.25c0,-11.27 9.13,-20.4 20.4,-20.4l63.9 0c14.93,0 28.99,3.92 41.18,10.78 12.64,7.11 23.24,17.38 30.71,29.73 0.4,0.67 0.75,1.35 1.07,2.04l1.12 2.08 0.06 -0.03 34.21 67.14c0.25,0.49 0.48,1 0.69,1.5l26.28 51.41 26.1 0 -17.5 -34.42 -51.7 -101.43c-5.11,-10.04 -1.11,-22.32 8.92,-27.42 2.58,-1.31 5.31,-2.02 8.03,-2.19zm-193.39 -42.69l0 -65.94c0,-11.27 9.14,-20.41 20.41,-20.41l162.17 0c9.02,0 16.66,2.2 22.95,5.23 6.1,2.95 10.75,6.67 14.11,9.9l0.64 0.64c2.78,2.91 6.54,7.51 9.71,13.81 3.25,6.47 5.76,14.49 5.76,23.84 0,10.43 -3.07,20.45 -8.59,29 -5.47,8.44 -13.32,15.33 -22.97,19.6l-0.93 0.38c-3.22,1.46 -6.41,2.5 -9.59,3.19 -3.78,0.81 -7.46,1.17 -11.09,1.17l-162.17 0c-11.27,0 -20.41,-9.14 -20.41,-20.41zm40.81 -45.54l0 25.14 141.77 0c1.06,0 1.96,-0.07 2.64,-0.21 0.39,-0.09 0.74,-0.18 1.05,-0.29 0.49,-0.26 0.98,-0.51 1.5,-0.73 2.24,-0.99 4.05,-2.56 5.27,-4.46 1.22,-1.89 1.9,-4.24 1.9,-6.84 0,-2.33 -0.57,-4.21 -1.3,-5.67 -0.73,-1.44 -1.72,-2.69 -2.55,-3.6 -0.86,-0.78 -1.95,-1.62 -3.26,-2.25 -1.3,-0.63 -3.01,-1.09 -5.25,-1.09l-141.77 0zm385.93 -40.81l241.16 0 0 -23 -241.16 0c-21.09,0 -40.12,8.53 -53.85,22.3 -13.79,13.83 -22.31,32.97 -22.31,54.12l0 164.65c0,21.16 8.52,40.3 22.31,54.13 13.73,13.77 32.76,22.3 53.85,22.3l241.16 0 0 -23 -241.16 0c-14.64,0 -27.92,-6.05 -37.55,-15.75 -9.64,-9.72 -15.61,-23.08 -15.61,-37.68l0 -67.65c0,-11.27 9.13,-20.4 20.4,-20.4l210.11 0 0 -23 -210.11 0c-11.27,0 -20.4,-9.14 -20.4,-20.41l0 -33.19c0,-14.6 5.97,-27.95 15.61,-37.67 9.63,-9.7 22.91,-15.75 37.55,-15.75zm261.57 40.81l-261.57 0c-3.4,0 -6.48,1.4 -8.7,3.64 -2.25,2.27 -3.65,5.45 -3.65,8.97l0 12.78 210.1 0c11.27,0 20.41,9.14 20.41,20.41l0 63.81c0,11.27 -9.14,20.41 -20.41,20.41l-210.1 0 0 47.24c0,3.53 1.4,6.71 3.65,8.98 2.22,2.24 5.3,3.63 8.7,3.63l261.57 0c11.26,0 20.4,9.14 20.4,20.41l0 63.81c0,11.27 -9.14,20.41 -20.4,20.41l-261.57 0c-32.28,0 -61.51,-13.16 -82.7,-34.41 -21.18,-21.24 -34.27,-50.54 -34.27,-82.83l0 -164.65c0,-32.28 13.09,-61.58 34.27,-82.82 21.19,-21.25 50.42,-34.41 82.7,-34.41l261.57 0c11.26,0 20.4,9.14 20.4,20.41l0 63.81c0,11.27 -9.14,20.4 -20.4,20.4zm71.76 -63.55l0 23.09 126.75 0c11.27,0 20.41,9.13 20.41,20.4l0 273.83 23.09 0 0 -273.83c0,-11.27 9.13,-20.4 20.4,-20.4l126.67 0 0 -23.09 -317.32 0zm-40.81 43.49l0 -63.9c0,-11.27 9.13,-20.4 20.4,-20.4l358.14 0c11.27,0 20.4,9.13 20.4,20.4l0 63.9c0,11.27 -9.13,20.41 -20.4,20.41l-126.67 0 0 273.83c0,11.27 -9.14,20.4 -20.41,20.4l-63.9 0c-11.26,0 -20.4,-9.13 -20.4,-20.4l0 -273.83 -126.76 0c-11.27,0 -20.4,-9.14 -20.4,-20.41zm526.47 -20.75l241.15 0 0 -23 -241.15 0c-21.09,0 -40.12,8.53 -53.85,22.3 -13.8,13.83 -22.32,32.97 -22.32,54.12l0 164.65c0,21.16 8.52,40.3 22.32,54.13 13.73,13.77 32.76,22.3 53.85,22.3l241.15 0 0 -23 -241.15 0c-14.65,0 -27.93,-6.05 -37.56,-15.75 -9.64,-9.72 -15.61,-23.08 -15.61,-37.68l0 -67.65c0,-11.27 9.14,-20.4 20.41,-20.4l210.1 0 0 -23 -210.1 0c-11.27,0 -20.41,-9.14 -20.41,-20.41l0 -33.19c0,-14.6 5.97,-27.95 15.61,-37.67 9.63,-9.7 22.91,-15.75 37.56,-15.75zm261.56 40.81l-261.56 0c-3.41,0 -6.49,1.4 -8.7,3.64 -2.26,2.27 -3.66,5.45 -3.66,8.97l0 12.78 210.11 0c11.27,0 20.4,9.14 20.4,20.41l0 63.81c0,11.27 -9.13,20.41 -20.4,20.41l-210.11 0 0 47.24c0,3.53 1.4,6.71 3.66,8.98 2.21,2.24 5.29,3.63 8.7,3.63l261.56 0c11.27,0 20.4,9.14 20.4,20.41l0 63.81c0,11.27 -9.13,20.41 -20.4,20.41l-261.56 0c-32.28,0 -61.51,-13.16 -82.71,-34.41 -21.18,-21.24 -34.27,-50.54 -34.27,-82.83l0 -164.65c0,-32.28 13.09,-61.58 34.27,-82.82 21.2,-21.25 50.43,-34.41 82.71,-34.41l261.56 0c11.27,0 20.4,9.14 20.4,20.41l0 63.81c0,11.27 -9.13,20.4 -20.4,20.4zm197.24 -40.81l158.74 0 0 -23 -158.74 0c-43.85,0 -83.54,17.77 -112.26,46.49 -28.72,28.72 -46.49,68.41 -46.49,112.26 0,43.85 17.77,83.54 46.49,112.26 28.72,28.72 68.41,46.49 112.26,46.49l158.74 0 0 -23 -158.74 0c-37.45,0 -71.39,-15.22 -95.96,-39.79 -24.57,-24.57 -39.79,-58.51 -39.79,-95.96 0,-37.45 15.22,-71.39 39.79,-95.96 24.57,-24.57 58.51,-39.79 95.96,-39.79zm179.15 40.81l-179.15 0c-26.19,0 -49.93,10.65 -67.11,27.83 -17.19,17.19 -27.83,40.92 -27.83,67.11 0,26.19 10.64,49.92 27.83,67.11 17.18,17.18 40.92,27.82 67.11,27.82l179.15 0c11.27,0 20.41,9.14 20.41,20.41l0 63.81c0,11.27 -9.14,20.41 -20.41,20.41l-179.15 0c-55.11,0 -105,-22.34 -141.12,-58.45 -36.1,-36.11 -58.44,-86 -58.44,-141.11 0,-55.11 22.34,-105 58.44,-141.12 36.12,-36.1 86.01,-58.44 141.12,-58.44l179.15 0c11.27,0 20.41,9.14 20.41,20.41l0 63.81c0,11.27 -9.14,20.4 -20.41,20.4zm365.83 -63.72l0 109.52c0,11.27 -9.14,20.41 -20.41,20.41l-230.34 0c-11.27,0 -20.4,-9.14 -20.4,-20.41l0 -109.61 -23.09 0 0 317.33 23.09 0 0 -143.91c0,-11.27 9.13,-20.4 20.4,-20.4l230.34 0c11.27,0 20.41,9.13 20.41,20.4l0 143.99 23.09 0 0 -317.32 -23.09 0zm-40.81 89.11l0 -109.52c0,-11.27 9.13,-20.4 20.4,-20.4l63.9 0c11.27,0 20.41,9.13 20.41,20.4l0 358.14c0,11.27 -9.14,20.4 -20.41,20.4l-63.9 0c-11.27,0 -20.4,-9.13 -20.4,-20.4l0 -143.99 -189.53 0 0 143.9c0,11.27 -9.14,20.41 -20.41,20.41l-63.89 0c-11.27,0 -20.41,-9.14 -20.41,-20.41l0 -358.13c0,-11.27 9.14,-20.41 20.41,-20.41l63.89 0c11.27,0 20.41,9.14 20.41,20.41l0 109.6 189.53 0z"/>
  <g style="clip-path:url(#id0)">
   <g id="_1101612352">
    <polygon id="_1" class="fil1" points="-140,-444.33 3538.9,-444.33 3538.9,24.32 2216.9,295.7 1304.67,116.18 -140,372.46 "/>
   </g>
  </g>
  <path class="fil2" d="M463.72 85.9l-115.16 88.73c-7.58,5.85 -17.99,5.52 -25.15,-0.22l-146.03 -112.59 0 296.49 23.25 0 0 -207.72c0,-11.27 9.14,-20.4 20.41,-20.4 5.26,0 10.06,1.99 13.68,5.26l61.54 47.41 39.87 30.77 102.73 -79.14c8.89,-6.86 21.67,-5.22 28.53,3.67 2.86,3.7 4.24,8.09 4.24,12.43l0.07 0 0 207.72 23.17 0 0 -296.45 -31.15 24.04zm-127.59 46.94l102.73 -79.14 62.72 -48.42c3.62,-3.28 8.42,-5.28 13.69,-5.28 11.27,0 20.41,9.14 20.41,20.41l0 148.01c6.69,-42.6 26.86,-80.74 56.01,-109.9 36.1,-36.1 85.97,-58.43 141.04,-58.43 55.07,0 104.94,22.33 141.04,58.43 29.41,29.41 49.68,67.95 56.18,111l0 -149.11c0,-11.27 9.14,-20.41 20.41,-20.41l226.07 0c15.82,0 30.93,3.17 44.77,8.9 14.37,5.96 27.25,14.65 37.99,25.4l-0.04 0.04 0.12 0.12c10.69,10.84 19.33,23.78 25.25,38.13 5.72,13.89 8.89,28.98 8.89,44.64 0,23.28 -6.83,45.04 -18.58,63.34 -12.11,18.85 -29.47,33.98 -50.02,43.28 -2.18,1.01 -4.38,1.95 -6.6,2.82l40.12 78.73 32.21 63.32c1.66,2.95 2.61,6.36 2.61,9.99 0,11.27 -9.13,20.41 -20.4,20.41l-71.75 0 0 -0.09c-7.38,0 -14.5,-4.04 -18.09,-11.07l-31.99 -62.56c-0.3,-0.49 -0.59,-0.99 -0.85,-1.51l-34.21 -67.14 0.05 -0.02 -0.58 -1.06 -0.29 -0.46c-3.82,-6.32 -9.25,-11.59 -15.72,-15.23 -6.23,-3.51 -13.49,-5.51 -21.25,-5.51l-43.49 0 0 144.24c0,11.27 -9.14,20.41 -20.41,20.41l-63.81 0c-11.27,0 -20.41,-9.14 -20.41,-20.41l0 -149.11c-6.5,43.05 -26.77,81.59 -56.18,111 -36.1,36.1 -85.97,58.43 -141.04,58.43 -55.07,0 -104.94,-22.33 -141.04,-58.43 -29.15,-29.16 -49.32,-67.3 -56.01,-109.9l0 148.01c0,11.27 -9.14,20.41 -20.41,20.41l-63.98 0c-11.27,0 -20.4,-9.14 -20.4,-20.41l0 -186.72 -82.06 63.22c-7.16,5.73 -17.56,6.06 -25.14,0.2l-82.25 -63.42 0 186.72c0,11.27 -9.13,20.41 -20.4,20.41l-64.07 0c-11.27,0 -20.41,-9.14 -20.41,-20.41l0 -358.3 0.07 0c0,-4.35 1.38,-8.73 4.24,-12.44 6.87,-8.89 19.64,-10.53 28.53,-3.66l166.73 128.53zm396.6 -91.94c-43.8,0 -83.47,17.76 -112.18,46.48 -28.72,28.71 -46.48,68.38 -46.48,112.18 0,43.8 17.76,83.47 46.48,112.18 28.71,28.72 68.38,46.48 112.18,46.48 43.81,0 83.47,-17.76 112.19,-46.48 28.71,-28.71 46.47,-68.38 46.47,-112.18 0,-43.8 -17.76,-83.47 -46.47,-112.18 -28.72,-28.72 -68.38,-46.48 -112.19,-46.48zm0 294.32c-37.41,0 -71.33,-15.21 -95.89,-39.77 -24.55,-24.56 -39.77,-58.48 -39.77,-95.89 0,-37.41 15.22,-71.33 39.77,-95.89 24.56,-24.56 58.48,-39.77 95.89,-39.77 37.41,0 71.33,15.21 95.89,39.77 24.56,24.56 39.77,58.48 39.77,95.89 0,37.41 -15.21,71.33 -39.77,95.89 -24.56,24.56 -58.48,39.77 -95.89,39.77zm-67.03 -68.63c17.17,17.18 40.89,27.82 67.03,27.82 26.15,0 49.86,-10.64 67.04,-27.82 17.17,-17.17 27.81,-40.89 27.81,-67.03 0,-26.14 -10.64,-49.86 -27.81,-67.04 -17.18,-17.17 -40.89,-27.81 -67.04,-27.81 -26.14,0 -49.86,10.64 -67.03,27.81 -17.18,17.18 -27.82,40.9 -27.82,67.04 0,26.14 10.64,49.86 27.82,67.03zm521.54 -73.74c3.37,-0.43 6.71,-1.11 9.97,-2.04l-0.01 -0.02c3.74,-1.06 7.27,-2.38 10.56,-3.93l0.32 -0.15c13.32,-6.04 24.6,-15.88 32.47,-28.14 7.63,-11.86 12.05,-26.06 12.05,-41.34 0,-10.41 -2.03,-20.27 -5.71,-29.18 -3.84,-9.33 -9.5,-17.79 -16.51,-24.93l-0.04 0.04c-7.09,-7.09 -15.48,-12.79 -24.76,-16.63 -8.89,-3.68 -18.72,-5.72 -29.15,-5.72l-205.66 0 0 317.5 23 0 0 -144.25c0,-11.27 9.13,-20.4 20.4,-20.4l63.9 0c14.93,0 28.99,3.92 41.18,10.78 12.64,7.11 23.24,17.38 30.71,29.73 0.4,0.67 0.75,1.35 1.07,2.04l1.12 2.08 0.06 -0.03 34.21 67.14c0.25,0.49 0.48,1 0.69,1.5l26.28 51.41 26.1 0 -17.5 -34.42 -51.7 -101.43c-5.11,-10.04 -1.11,-22.32 8.92,-27.42 2.58,-1.31 5.31,-2.02 8.03,-2.19zm-193.39 -42.69l0 -65.94c0,-11.27 9.14,-20.41 20.41,-20.41l162.17 0c9.02,0 16.66,2.2 22.95,5.23 6.1,2.95 10.75,6.67 14.11,9.9l0.64 0.64c2.78,2.91 6.54,7.51 9.71,13.81 3.25,6.47 5.76,14.49 5.76,23.84 0,10.43 -3.07,20.45 -8.59,29 -5.47,8.44 -13.32,15.33 -22.97,19.6l-0.93 0.38c-3.22,1.46 -6.41,2.5 -9.59,3.19 -3.78,0.81 -7.46,1.17 -11.09,1.17l-162.17 0c-11.27,0 -20.41,-9.14 -20.41,-20.41zm40.81 -45.54l0 25.14 141.77 0c1.06,0 1.96,-0.07 2.64,-0.21 0.39,-0.09 0.74,-0.18 1.05,-0.29 0.49,-0.26 0.98,-0.51 1.5,-0.73 2.24,-0.99 4.05,-2.56 5.27,-4.46 1.22,-1.89 1.9,-4.24 1.9,-6.84 0,-2.33 -0.57,-4.21 -1.3,-5.67 -0.73,-1.44 -1.72,-2.69 -2.55,-3.6 -0.86,-0.78 -1.95,-1.62 -3.26,-2.25 -1.3,-0.63 -3.01,-1.09 -5.25,-1.09l-141.77 0zm385.93 -40.81l241.16 0 0 -23 -241.16 0c-21.09,0 -40.12,8.53 -53.85,22.3 -13.79,13.83 -22.31,32.97 -22.31,54.12l0 164.65c0,21.16 8.52,40.3 22.31,54.13 13.73,13.77 32.76,22.3 53.85,22.3l241.16 0 0 -23 -241.16 0c-14.64,0 -27.92,-6.05 -37.55,-15.75 -9.64,-9.72 -15.61,-23.08 -15.61,-37.68l0 -67.65c0,-11.27 9.13,-20.4 20.4,-20.4l210.11 0 0 -23 -210.11 0c-11.27,0 -20.4,-9.14 -20.4,-20.41l0 -33.19c0,-14.6 5.97,-27.95 15.61,-37.67 9.63,-9.7 22.91,-15.75 37.55,-15.75zm261.57 40.81l-261.57 0c-3.4,0 -6.48,1.4 -8.7,3.64 -2.25,2.27 -3.65,5.45 -3.65,8.97l0 12.78 210.1 0c11.27,0 20.41,9.14 20.41,20.41l0 63.81c0,11.27 -9.14,20.41 -20.41,20.41l-210.1 0 0 47.24c0,3.53 1.4,6.71 3.65,8.98 2.22,2.24 5.3,3.63 8.7,3.63l261.57 0c11.26,0 20.4,9.14 20.4,20.41l0 63.81c0,11.27 -9.14,20.41 -20.4,20.41l-261.57 0c-32.28,0 -61.51,-13.16 -82.7,-34.41 -21.18,-21.24 -34.27,-50.54 -34.27,-82.83l0 -164.65c0,-32.28 13.09,-61.58 34.27,-82.82 21.19,-21.25 50.42,-34.41 82.7,-34.41l261.57 0c11.26,0 20.4,9.14 20.4,20.41l0 63.81c0,11.27 -9.14,20.4 -20.4,20.4zm71.76 -63.55l0 23.09 126.75 0c11.27,0 20.41,9.13 20.41,20.4l0 273.83 23.09 0 0 -273.83c0,-11.27 9.13,-20.4 20.4,-20.4l126.67 0 0 -23.09 -317.32 0zm-40.81 43.49l0 -63.9c0,-11.27 9.13,-20.4 20.4,-20.4l358.14 0c11.27,0 20.4,9.13 20.4,20.4l0 63.9c0,11.27 -9.13,20.41 -20.4,20.41l-126.67 0 0 273.83c0,11.27 -9.14,20.4 -20.41,20.4l-63.9 0c-11.26,0 -20.4,-9.13 -20.4,-20.4l0 -273.83 -126.76 0c-11.27,0 -20.4,-9.14 -20.4,-20.41zm526.47 -20.75l241.15 0 0 -23 -241.15 0c-21.09,0 -40.12,8.53 -53.85,22.3 -13.8,13.83 -22.32,32.97 -22.32,54.12l0 164.65c0,21.16 8.52,40.3 22.32,54.13 13.73,13.77 32.76,22.3 53.85,22.3l241.15 0 0 -23 -241.15 0c-14.65,0 -27.93,-6.05 -37.56,-15.75 -9.64,-9.72 -15.61,-23.08 -15.61,-37.68l0 -67.65c0,-11.27 9.14,-20.4 20.41,-20.4l210.1 0 0 -23 -210.1 0c-11.27,0 -20.41,-9.14 -20.41,-20.41l0 -33.19c0,-14.6 5.97,-27.95 15.61,-37.67 9.63,-9.7 22.91,-15.75 37.56,-15.75zm261.56 40.81l-261.56 0c-3.41,0 -6.49,1.4 -8.7,3.64 -2.26,2.27 -3.66,5.45 -3.66,8.97l0 12.78 210.11 0c11.27,0 20.4,9.14 20.4,20.41l0 63.81c0,11.27 -9.13,20.41 -20.4,20.41l-210.11 0 0 47.24c0,3.53 1.4,6.71 3.66,8.98 2.21,2.24 5.29,3.63 8.7,3.63l261.56 0c11.27,0 20.4,9.14 20.4,20.41l0 63.81c0,11.27 -9.13,20.41 -20.4,20.41l-261.56 0c-32.28,0 -61.51,-13.16 -82.71,-34.41 -21.18,-21.24 -34.27,-50.54 -34.27,-82.83l0 -164.65c0,-32.28 13.09,-61.58 34.27,-82.82 21.2,-21.25 50.43,-34.41 82.71,-34.41l261.56 0c11.27,0 20.4,9.14 20.4,20.41l0 63.81c0,11.27 -9.13,20.4 -20.4,20.4zm197.24 -40.81l158.74 0 0 -23 -158.74 0c-43.85,0 -83.54,17.77 -112.26,46.49 -28.72,28.72 -46.49,68.41 -46.49,112.26 0,43.85 17.77,83.54 46.49,112.26 28.72,28.72 68.41,46.49 112.26,46.49l158.74 0 0 -23 -158.74 0c-37.45,0 -71.39,-15.22 -95.96,-39.79 -24.57,-24.57 -39.79,-58.51 -39.79,-95.96 0,-37.45 15.22,-71.39 39.79,-95.96 24.57,-24.57 58.51,-39.79 95.96,-39.79zm179.15 40.81l-179.15 0c-26.19,0 -49.93,10.65 -67.11,27.83 -17.19,17.19 -27.83,40.92 -27.83,67.11 0,26.19 10.64,49.92 27.83,67.11 17.18,17.18 40.92,27.82 67.11,27.82l179.15 0c11.27,0 20.41,9.14 20.41,20.41l0 63.81c0,11.27 -9.14,20.41 -20.41,20.41l-179.15 0c-55.11,0 -105,-22.34 -141.12,-58.45 -36.1,-36.11 -58.44,-86 -58.44,-141.11 0,-55.11 22.34,-105 58.44,-141.12 36.12,-36.1 86.01,-58.44 141.12,-58.44l179.15 0c11.27,0 20.41,9.14 20.41,20.41l0 63.81c0,11.27 -9.14,20.4 -20.41,20.4zm365.83 -63.72l0 109.52c0,11.27 -9.14,20.41 -20.41,20.41l-230.34 0c-11.27,0 -20.4,-9.14 -20.4,-20.41l0 -109.61 -23.09 0 0 317.33 23.09 0 0 -143.91c0,-11.27 9.13,-20.4 20.4,-20.4l230.34 0c11.27,0 20.41,9.13 20.41,20.4l0 143.99 23.09 0 0 -317.32 -23.09 0zm-40.81 89.11l0 -109.52c0,-11.27 9.13,-20.4 20.4,-20.4l63.9 0c11.27,0 20.41,9.13 20.41,20.4l0 358.14c0,11.27 -9.14,20.4 -20.41,20.4l-63.9 0c-11.27,0 -20.4,-9.13 -20.4,-20.4l0 -143.99 -189.53 0 0 143.9c0,11.27 -9.14,20.41 -20.41,20.41l-63.89 0c-11.27,0 -20.41,-9.14 -20.41,-20.41l0 -358.13c0,-11.27 9.14,-20.41 20.41,-20.41l63.89 0c11.27,0 20.41,9.14 20.41,20.41l0 109.6 189.53 0z"/>
  <path class="fil0" d="M451.29 69.8l-115.17 88.72 -115.08 -88.72 -64.07 -49.39 0 358.3 64.07 0 0 -228.12 62.79 48.37 52.29 40.35 52.38 -40.35 62.79 -48.37 0 228.12 63.98 0 0 -358.3 -63.98 49.39zm281.44 -49.31c-98.87,0 -179.07,80.19 -179.07,179.07 0,98.87 80.2,179.07 179.07,179.07 98.88,0 179.07,-80.2 179.07,-179.07 0,-98.88 -80.19,-179.07 -179.07,-179.07l0 0zm0 294.32c-63.55,0 -115.25,-51.69 -115.25,-115.25 0,-63.56 51.7,-115.25 115.25,-115.25 63.56,0 115.26,51.69 115.26,115.25 0,63.56 -51.7,115.25 -115.26,115.25zm455.73 -101.6c0,0 0.09,0 0.09,0 9.81,-1.11 19.19,-3.84 27.89,-7.93 33.36,-15.11 56.56,-48.89 56.56,-88.05 0,-26.61 -10.83,-50.84 -28.23,-68.5 -17.49,-17.49 -41.55,-28.32 -68.34,-28.32l-226.07 0 0 358.3 63.81 0 0 -164.65 63.9 0c23.12,0 43.34,12.29 54.43,30.63l1.53 2.81 34.21 67.14 32.76 64.07 71.75 0 -32.59 -64.07 -51.7 -101.43zm-174.2 -63.05l0 -65.94 162.17 0c11.26,0 18.69,5.29 22.95,9.38 3.67,3.84 9.81,11.95 9.81,23.63 0,12.97 -7.42,24.66 -19.36,29.95 -4.27,2.13 -8.7,2.98 -13.4,2.98l-162.17 0zm406.33 -65.94l261.56 0 0 -63.81 -261.56 0c-53.4,0 -96.57,43.42 -96.57,96.82l0 164.65c0,53.41 43.17,96.83 96.57,96.83l261.56 0 0 -63.81 -261.56 0c-18.08,0 -32.76,-14.93 -32.76,-33.02l0 -67.65 230.51 0 0 -63.81 -230.51 0 0 -33.19c0,-18.08 14.68,-33.01 32.76,-33.01l0 0zm312.92 -63.56l0 63.9 147.16 0 0 294.24 63.9 0 0 -294.24 147.08 0 0 -63.9 -358.14 0zm506.07 63.56l261.56 0 0 -63.81 -261.56 0c-53.41,0 -96.58,43.42 -96.58,96.82l0 164.65c0,53.41 43.17,96.83 96.58,96.83l261.56 0 0 -63.81 -261.56 0c-18.09,0 -32.76,-14.93 -32.76,-33.02l0 -67.65 230.51 0 0 -63.81 -230.51 0 0 -33.19c0,-18.08 14.67,-33.01 32.76,-33.01l0 0zm458.8 0l179.15 0 0 -63.81 -179.15 0c-98.96,0 -179.16,80.19 -179.16,179.15 0,98.96 80.2,179.15 179.16,179.15l179.15 0 0 -63.81 -179.15 0c-63.65,0 -115.34,-51.7 -115.34,-115.34 0,-63.64 51.69,-115.34 115.34,-115.34l0 0zm524.57 -63.73l0 129.93 -230.34 0 0 -130.01 -63.9 0 0 358.13 63.9 0 0 -164.31 230.34 0 0 164.4 63.9 0 0 -358.14 -63.9 0z"/>
  <g style="clip-path:url(#id1)">
   <g id="_1101615184">
    <polygon id="_1_0" class="fil1" points="-139.93,-444.76 3538.96,-444.76 3538.96,23.89 2216.97,295.27 1304.74,115.75 -139.93,372.03 "/>
   </g>
  </g>
  <g style="clip-path:url(#id2)">
   <g id="_1101615184">
    <polygon class="fil1" points="-139.93,-444.76 3538.96,-444.76 3538.96,23.89 2216.97,295.27 1304.74,115.75 -139.93,372.03 "/>
   </g>
  </g>
  <g style="clip-path:url(#id3)">
   <g id="_1101615184">
    <polygon class="fil1" points="-139.93,-444.76 3538.96,-444.76 3538.96,23.89 2216.97,295.27 1304.74,115.75 -139.93,372.03 "/>
   </g>
  </g>
  <g style="clip-path:url(#id4)">
   <g id="_1101615184">
    <polygon class="fil1" points="-139.93,-444.76 3538.96,-444.76 3538.96,23.89 2216.97,295.27 1304.74,115.75 -139.93,372.03 "/>
   </g>
  </g>
  <g style="clip-path:url(#id5)">
   <g id="_1101615184">
    <polygon class="fil1" points="-139.93,-444.76 3538.96,-444.76 3538.96,23.89 2216.97,295.27 1304.74,115.75 -139.93,372.03 "/>
   </g>
  </g>
  <g style="clip-path:url(#id6)">
   <g id="_1101615184">
    <polygon class="fil1" points="-139.93,-444.76 3538.96,-444.76 3538.96,23.89 2216.97,295.27 1304.74,115.75 -139.93,372.03 "/>
   </g>
  </g>
  <g style="clip-path:url(#id7)">
   <g id="_1101615184">
    <polygon class="fil1" points="-139.93,-444.76 3538.96,-444.76 3538.96,23.89 2216.97,295.27 1304.74,115.75 -139.93,372.03 "/>
   </g>
  </g>
  <g style="clip-path:url(#id8)">
   <g id="_1101615184">
    <polygon class="fil1" points="-139.93,-444.76 3538.96,-444.76 3538.96,23.89 2216.97,295.27 1304.74,115.75 -139.93,372.03 "/>
   </g>
  </g>
  <path class="fil2 str0" d="M451.29 69.8l-115.17 88.72 -115.08 -88.72 -64.07 -49.39 0 358.3 64.07 0 0 -228.12 62.79 48.37 52.29 40.35 52.38 -40.35 62.79 -48.37 0 228.12 63.98 0 0 -358.3 -63.98 49.39zm281.44 -49.31c-98.87,0 -179.07,80.19 -179.07,179.07 0,98.87 80.2,179.07 179.07,179.07 98.88,0 179.07,-80.2 179.07,-179.07 0,-98.88 -80.19,-179.07 -179.07,-179.07l0 0zm0 294.32c-63.55,0 -115.25,-51.69 -115.25,-115.25 0,-63.56 51.7,-115.25 115.25,-115.25 63.56,0 115.26,51.69 115.26,115.25 0,63.56 -51.7,115.25 -115.26,115.25zm455.73 -101.6c0,0 0.09,0 0.09,0 9.81,-1.11 19.19,-3.84 27.89,-7.93 33.36,-15.11 56.56,-48.89 56.56,-88.05 0,-26.61 -10.83,-50.84 -28.23,-68.5 -17.49,-17.49 -41.55,-28.32 -68.34,-28.32l-226.07 0 0 358.3 63.81 0 0 -164.65 63.9 0c23.12,0 43.34,12.29 54.43,30.63l1.53 2.81 34.21 67.14 32.76 64.07 71.75 0 -32.59 -64.07 -51.7 -101.43zm-174.2 -63.05l0 -65.94 162.17 0c11.26,0 18.69,5.29 22.95,9.38 3.67,3.84 9.81,11.95 9.81,23.63 0,12.97 -7.42,24.66 -19.36,29.95 -4.27,2.13 -8.7,2.98 -13.4,2.98l-162.17 0zm406.33 -65.94l261.56 0 0 -63.81 -261.56 0c-53.4,0 -96.57,43.42 -96.57,96.82l0 164.65c0,53.41 43.17,96.83 96.57,96.83l261.56 0 0 -63.81 -261.56 0c-18.08,0 -32.76,-14.93 -32.76,-33.02l0 -67.65 230.51 0 0 -63.81 -230.51 0 0 -33.19c0,-18.08 14.68,-33.01 32.76,-33.01l0 0zm312.92 -63.56l0 63.9 147.16 0 0 294.24 63.9 0 0 -294.24 147.08 0 0 -63.9 -358.14 0zm506.07 63.56l261.56 0 0 -63.81 -261.56 0c-53.41,0 -96.58,43.42 -96.58,96.82l0 164.65c0,53.41 43.17,96.83 96.58,96.83l261.56 0 0 -63.81 -261.56 0c-18.09,0 -32.76,-14.93 -32.76,-33.02l0 -67.65 230.51 0 0 -63.81 -230.51 0 0 -33.19c0,-18.08 14.67,-33.01 32.76,-33.01l0 0zm458.8 0l179.15 0 0 -63.81 -179.15 0c-98.96,0 -179.16,80.19 -179.16,179.15 0,98.96 80.2,179.15 179.16,179.15l179.15 0 0 -63.81 -179.15 0c-63.65,0 -115.34,-51.7 -115.34,-115.34 0,-63.64 51.69,-115.34 115.34,-115.34l0 0zm524.57 -63.73l0 129.93 -230.34 0 0 -130.01 -63.9 0 0 358.13 63.9 0 0 -164.31 230.34 0 0 164.4 63.9 0 0 -358.14 -63.9 0z"/>
  <g>
   <path class="fil3" d="M42.01 290.06l2.58 -0.39 2.58 -0.26 2.56 -0.13 2.54 0 2.53 0.13 2.49 0.26 2.47 0.37 2.44 0.5 2.4 0.61 2.36 0.72 2.31 0.83 2.27 0.95 2.21 1.04 2.17 1.16 2.1 1.25 2.04 1.35 1.97 1.45 1.9 1.54 1.83 1.63 1.75 1.71 1.67 1.81 1.59 1.88 1.49 1.97 1.41 2.04 1.3 2.11 1.21 2.19 1.1 2.26 0.99 2.33 0.89 2.39 0.76 2.45 0.65 2.51 0.52 2.57 0 0 0.4 2.59 0.26 2.58 0.12 2.57 0 2.54 -0.13 2.53 -0.25 2.5 -0.38 2.47 -0.5 2.44 -0.61 2.4 -0.72 2.36 -0.84 2.31 -0.95 2.27 -1.05 2.22 -1.15 2.16 -1.26 2.1 -1.35 2.04 -1.45 1.97 -1.54 1.9 -1.63 1.83 -1.72 1.75 -1.8 1.67 -1.88 1.58 -1.97 1.49 -2.04 1.4 -2.12 1.3 -2.18 1.21 -2.26 1.1 -2.32 0.99 -2.39 0.88 -2.45 0.76 -2.5 0.65 -2.56 0.52 0 0 -2.59 0.4 -2.57 0.25 -2.57 0.13 -2.54 0 -2.52 -0.13 -2.5 -0.25 -2.47 -0.38 -2.43 -0.49 -2.4 -0.61 -2.36 -0.73 -2.32 -0.83 -2.26 -0.94 -2.22 -1.05 -2.16 -1.15 -2.11 -1.26 -2.03 -1.35 -1.98 -1.44 -1.9 -1.54 -1.83 -1.63 -1.75 -1.72 -1.67 -1.8 -1.59 -1.89 -1.49 -1.96 -1.4 -2.04 -1.31 -2.12 -1.21 -2.19 -1.1 -2.26 -0.99 -2.32 -0.88 -2.4 -0.77 -2.45 -0.65 -2.51 -0.52 -2.56 0 0 -0.39 -2.6 -0.26 -2.58 -0.13 -2.56 0 -2.55 0.13 -2.53 0.26 -2.5 0.37 -2.47 0.5 -2.43 0.61 -2.4 0.73 -2.36 0.83 -2.32 0.95 -2.27 1.05 -2.21 1.15 -2.16 1.26 -2.11 1.35 -2.04 1.45 -1.97 1.54 -1.9 1.63 -1.83 1.72 -1.74 1.8 -1.67 1.89 -1.58 1.96 -1.5 2.04 -1.4 2.12 -1.3 2.19 -1.21 2.25 -1.09 2.33 -1 2.38 -0.88 2.45 -0.76 2.51 -0.65 2.56 -0.52 0 0zm10.44 58.66c-4.7,0.83 -9.18,-2.3 -10.01,-6.99 -0.84,-4.7 2.29,-9.18 6.98,-10.01l3.03 17zm1252.68 -222.98l-1252.68 222.98 -3.03 -17 1252.68 -222.99 3.17 0.03 -0.14 16.98zm-3.03 -17.01c4.7,-0.83 9.18,2.3 10.02,6.99 0.83,4.7 -2.3,9.18 -6.99,10.02l-3.03 -17.01zm913.71 195.26l-913.85 -178.28 3.31 -16.95 913.84 178.28 0.1 16.94 -3.4 0.01zm3.3 -16.95c4.68,0.92 7.74,5.45 6.83,10.13 -0.92,4.68 -5.45,7.74 -10.13,6.82l3.3 -16.95zm1148.88 -220.26l-1148.78 237.2 -3.5 -16.92 1148.79 -237.2 3.49 16.92zm96.4 -28.72l-92.86 73.18 -21.39 -103.56 114.25 30.38zm-99.89 11.8c4.67,-0.96 9.24,2.04 10.2,6.72 0.97,4.67 -2.04,9.23 -6.71,10.2l-3.49 -16.92z"/>
  </g>
 </g>
</svg>
