<svg width="24" height="24" xmlns="http://www.w3.org/2000/svg">

 <g>
  <title>background</title>
  <rect fill="none" id="canvas_background" height="602" width="802" y="-1" x="-1"/>
 </g>
 <g>
  <title>Layer 1</title>
  <path id="svg_1" fill="none" d="m0,0l24,0l0,24l-24,0l0,-24z"/>
  <path fill="#525252" id="svg_2" d="m21,3l-18,0c-1,0 -2,1 -2,2l0,14c0,1.1 0.9,2 2,2l18,0c1,0 2,-1 2,-2l0,-14c0,-1 -1,-2 -2,-2zm0,15.92c-0.02,0.03 -0.06,0.06 -0.08,0.08l-17.92,0l0,-13.92l0.08,-0.08l17.83,0c0.03,0.02 0.06,0.06 0.08,0.08l0,13.84l0.01,0zm-10,-3.41l-2.5,-3.01l-3.5,4.5l14,0l-4.5,-6l-3.5,4.51z"/>
 </g>
</svg>